<svg xmlns="http://www.w3.org/2000/svg" xmlns:xlink="http://www.w3.org/1999/xlink" width="1366" zoomAndPan="magnify" viewBox="0 0 1024.5 576" height="768" preserveAspectRatio="xMidYMid meet" version="1.0"><defs><clipPath id="497718d89c"><path d="M 434.566406 173 L 588 173 L 588 402.992188 L 434.566406 402.992188 Z M 434.566406 173 " clip-rule="nonzero"/></clipPath></defs><g clip-path="url(#497718d89c)"><path fill="#000000" d="M 576.011719 220.960938 C 576.011719 220.960938 579.121094 227.910156 579.640625 233.074219 C 580.15625 238.296875 581.480469 239.847656 582.171875 242.832031 C 582.863281 245.761719 581.769531 248.746094 580.328125 250.699219 C 578.949219 252.648438 576.820312 258.101562 578.144531 261.316406 C 579.464844 264.476562 582.285156 270.558594 584.417969 273.371094 C 586.546875 276.128906 589.425781 280.433594 586.832031 283.417969 C 584.242188 286.402344 578.371094 286.804688 578.371094 286.804688 C 578.371094 286.804688 578.144531 288.527344 579.292969 289.90625 C 580.503906 291.226562 581.710938 293.351562 580.503906 295.933594 C 579.351562 298.457031 576.761719 300.179688 576.761719 300.179688 C 576.761719 300.179688 580.328125 302.9375 578.832031 305.632812 C 577.335938 308.332031 571.925781 310.285156 571.234375 312.582031 C 570.601562 314.875 571.8125 316.3125 571.523438 317.230469 C 571.234375 318.148438 572.328125 318.207031 572.15625 318.953125 C 572.042969 319.640625 573.019531 320.15625 572.730469 320.902344 C 572.445312 321.59375 573.136719 322.339844 572.503906 323.027344 C 571.925781 323.71875 571.984375 324.0625 571.582031 324.808594 C 571.179688 325.554688 571.234375 326.011719 571.582031 326.183594 C 571.867188 326.300781 572.15625 327.21875 571.984375 327.621094 C 571.8125 328.078125 572.445312 329.054688 571.867188 329.398438 C 571.292969 329.800781 570.949219 330.320312 571.003906 330.71875 C 571.003906 331.121094 570.601562 331.351562 570.429688 331.410156 C 570.316406 331.410156 569.566406 331.753906 569.566406 331.984375 C 569.625 332.269531 569.394531 332.613281 569.046875 332.558594 C 568.703125 332.441406 568.300781 332.671875 568.242188 332.960938 C 568.183594 333.246094 567.496094 333.417969 567.265625 333.246094 C 566.976562 333.074219 566.34375 333.246094 566.285156 333.589844 C 566.171875 333.933594 565.421875 334.164062 565.078125 333.878906 C 564.730469 333.53125 564.328125 333.933594 564.269531 334.105469 C 564.214844 334.222656 563.753906 334.625 563.523438 334.507812 C 563.292969 334.453125 562.949219 334.164062 562.890625 334.335938 C 562.773438 334.453125 562.542969 334.96875 562.316406 334.96875 C 562.140625 334.910156 561.855469 334.394531 561.738281 334.394531 C 561.625 334.394531 561.507812 334.851562 561.277344 334.910156 C 561.105469 334.910156 561.222656 335.253906 560.875 335.425781 C 560.472656 335.601562 560.011719 335.601562 559.953125 335.425781 C 559.839844 335.253906 559.550781 335.601562 559.496094 335.714844 C 559.4375 335.828125 558.859375 336 558.746094 335.773438 C 558.628906 335.484375 558.285156 335.542969 558.054688 335.601562 C 557.765625 335.65625 557.421875 335.542969 557.421875 335.484375 C 557.363281 335.371094 557.363281 334.910156 556.902344 334.96875 C 556.445312 335.027344 556.214844 334.96875 556.15625 334.679688 C 556.15625 334.453125 555.808594 334.050781 555.636719 334.105469 C 555.464844 334.164062 555.121094 334.335938 555.003906 334.050781 C 554.945312 333.761719 554.890625 333.648438 554.542969 333.648438 C 554.199219 333.648438 554.027344 333.1875 554.140625 333.074219 C 554.257812 332.902344 554.3125 332.5 554.140625 332.386719 C 553.96875 332.269531 553.910156 332.15625 553.96875 331.925781 C 553.96875 331.753906 553.277344 331.582031 553.21875 331.523438 C 553.105469 331.410156 552.816406 331.351562 552.988281 330.949219 C 553.21875 330.605469 552.988281 330.089844 552.816406 329.972656 C 552.644531 329.859375 552.585938 329.628906 552.644531 329.515625 C 552.644531 329.34375 552.644531 328.882812 552.53125 328.769531 C 552.414062 328.652344 552.125 328.425781 552.183594 328.023438 C 552.300781 327.621094 552.183594 326.929688 551.839844 326.816406 C 551.550781 326.703125 551.035156 326.359375 550.917969 326.128906 C 550.746094 325.898438 549.765625 325.496094 549.421875 325.496094 C 549.078125 325.496094 548.558594 325.324219 548.441406 325.039062 C 548.328125 324.808594 547.464844 324.691406 547.003906 324.636719 C 546.542969 324.519531 546.140625 324.808594 545.738281 324.347656 C 545.394531 323.890625 545.335938 324.0625 544.933594 324.0625 C 544.527344 324.117188 544.242188 324.003906 543.953125 323.832031 C 543.722656 323.660156 542.800781 323.488281 542.167969 323.542969 C 541.535156 323.601562 541.480469 323.601562 541.074219 323.371094 C 540.730469 323.085938 539.867188 322.683594 539.40625 322.453125 C 539.003906 322.222656 539.003906 322.339844 538.429688 322.28125 C 537.910156 322.167969 537.796875 322.050781 537.21875 321.765625 C 536.644531 321.476562 534.398438 322.222656 532.671875 321.707031 C 530.945312 321.191406 531.519531 321.824219 529.910156 324.40625 C 528.242188 326.988281 529.621094 330.320312 527.550781 334.222656 C 525.421875 338.125 523.808594 347.828125 524.84375 352.015625 C 525.878906 356.152344 537.96875 361.316406 549.824219 373.773438 C 561.625 386.289062 567.898438 402.9375 567.898438 402.9375 C 567.898438 402.9375 538.3125 369.984375 489.621094 373.429688 C 440.867188 376.929688 434.25 382.84375 434.25 382.84375 C 434.25 382.84375 454.453125 352.589844 465.90625 340.308594 C 477.417969 327.964844 479.488281 305.75 480.351562 298.632812 C 481.214844 291.511719 481.675781 283.992188 481.042969 283.074219 C 480.351562 282.214844 479.949219 281.238281 480.179688 280.546875 C 480.351562 279.859375 480.296875 279.054688 479.433594 278.367188 C 478.625 277.679688 478.109375 277.21875 478.339844 276.472656 C 478.570312 275.726562 476.667969 273.945312 477.070312 272.972656 C 477.476562 271.9375 476.4375 271.304688 475.171875 271.132812 C 473.90625 270.960938 473.042969 270.675781 472.871094 269.585938 C 472.640625 268.4375 472.296875 267.976562 471.429688 267.519531 C 470.625 267.058594 470.109375 266.484375 469.933594 266.023438 C 469.761719 265.507812 466.769531 264.359375 466.710938 262.464844 C 466.65625 260.515625 467.113281 259.710938 466.65625 259.023438 C 466.195312 258.332031 466.078125 257.988281 466.019531 257.128906 C 465.964844 256.324219 464.753906 256.152344 464.0625 256.09375 C 463.375 255.980469 461.417969 254.542969 461.589844 253.511719 C 461.820312 252.421875 461.53125 252.476562 460.957031 252.074219 C 460.378906 251.675781 460.09375 250.984375 460.4375 250.699219 C 460.726562 250.355469 460.4375 249.148438 459.632812 248.230469 C 458.769531 247.367188 458.480469 246.792969 458.828125 246.21875 C 459.171875 245.644531 459.515625 243.980469 458.882812 243.464844 C 458.25 242.890625 457.847656 242.433594 457.847656 241.683594 C 457.847656 240.9375 457.734375 240.363281 457.15625 239.734375 C 456.523438 239.160156 455.546875 238.355469 455.777344 237.265625 C 456.007812 236.175781 456.582031 234.796875 456.640625 233.820312 C 456.753906 232.789062 457.445312 231.066406 458.308594 230.777344 C 459.171875 230.492188 457.558594 227.449219 458.25 226.53125 C 458.941406 225.667969 458.480469 225.039062 458.25 224.0625 C 457.964844 223.027344 458.078125 220.617188 458.769531 220.332031 C 459.460938 219.988281 460.152344 218.550781 461.070312 219.066406 C 462.050781 219.527344 462.796875 218.550781 462.855469 217.691406 C 462.96875 216.886719 462.566406 215.566406 463.144531 215.453125 C 463.71875 215.335938 463.257812 213.386719 463.199219 212.753906 C 463.085938 212.179688 462.855469 210.917969 463.660156 210.398438 C 464.46875 209.941406 463.488281 209.941406 463.890625 208.964844 C 464.292969 207.929688 464.179688 207.355469 463.890625 206.726562 C 463.546875 206.09375 462.566406 204.945312 463.144531 203.914062 C 463.71875 202.878906 462.453125 201.503906 463.835938 200.984375 C 465.214844 200.527344 465.90625 199.550781 466.539062 199.722656 C 467.113281 199.894531 469.128906 200.007812 469.300781 200.296875 C 469.476562 200.582031 470.511719 199.609375 470.109375 198.515625 C 469.703125 197.425781 469.878906 196.96875 470.109375 196.335938 C 470.339844 195.703125 469.300781 194.902344 469.820312 193.925781 C 470.394531 192.949219 471.890625 193.351562 472.296875 192.890625 C 472.753906 192.433594 473.042969 191.859375 474.195312 191.914062 C 475.289062 191.972656 476.09375 191.800781 475.980469 191.511719 C 475.863281 191.226562 475.117188 188.929688 476.035156 188.355469 C 477.015625 187.726562 476.957031 187.324219 477.707031 187.207031 C 478.453125 187.152344 479.316406 188.300781 479.890625 187.324219 C 480.46875 186.289062 481.675781 185.832031 483.058594 186.003906 C 484.441406 186.175781 484.496094 185.660156 484.957031 185.027344 C 485.476562 184.453125 486.109375 184.394531 486.742188 184.28125 C 487.433594 184.164062 486.800781 182.730469 488.351562 182.617188 C 489.851562 182.5 489.042969 181.351562 489.390625 180.261719 C 489.675781 179.171875 491.402344 177.390625 492.265625 177.5625 C 493.074219 177.738281 494.800781 176.816406 495.664062 177.851562 C 496.585938 178.882812 497.964844 178.539062 498.3125 178.941406 C 498.714844 179.34375 499.578125 177.390625 500.210938 177.679688 C 500.84375 177.910156 502.167969 177.5625 502.972656 177.335938 C 503.722656 177.105469 504.355469 177.449219 504.527344 178.308594 C 504.699219 179.113281 506.945312 178.828125 507.175781 178.253906 C 507.40625 177.679688 508.730469 176.816406 509.417969 176.816406 C 510.109375 176.816406 510.050781 174.921875 511.261719 174.636719 C 512.46875 174.347656 514.253906 174.808594 514.371094 174.464844 C 514.484375 174.121094 516.441406 172.914062 517.363281 173.488281 C 518.226562 174.003906 518.28125 175.152344 518.457031 175.324219 C 518.6875 175.496094 519.605469 175.726562 519.492188 176.242188 C 519.375 176.761719 521.160156 175.84375 521.160156 175.382812 C 521.160156 174.921875 521.160156 174.175781 521.679688 173.949219 C 522.253906 173.777344 523.636719 173.488281 523.808594 173.949219 C 523.980469 174.464844 524.671875 174.292969 524.960938 174.75 C 525.246094 175.152344 525.421875 176.761719 525.824219 176.761719 C 526.285156 176.761719 526.628906 175.957031 527.550781 175.898438 C 528.527344 175.898438 528.988281 174.347656 529.910156 174.636719 C 530.773438 174.980469 531.75 176.242188 532.210938 176.128906 C 532.613281 176.015625 534.054688 174.867188 534.800781 175.152344 C 535.550781 175.382812 536.125 173.601562 537.566406 174.234375 C 539.0625 174.808594 539.347656 174.75 540.210938 174.578125 C 541.074219 174.40625 541.824219 174.464844 542.457031 174.921875 C 543.089844 175.382812 544.875 175.726562 544.585938 176.644531 C 544.300781 177.5625 544.875 178.597656 544.527344 179.171875 C 544.242188 179.746094 545.394531 180.378906 546.140625 179.976562 C 546.945312 179.515625 547.292969 179.746094 547.984375 179.976562 C 548.671875 180.148438 549.421875 178.539062 550.285156 178.710938 C 551.148438 178.882812 550.574219 176.300781 551.035156 176.417969 C 551.4375 176.589844 551.78125 173.660156 553.105469 174.003906 C 554.488281 174.347656 556.789062 175.210938 556.730469 176.1875 C 556.675781 177.105469 557.480469 178.308594 558.054688 179 C 558.6875 179.6875 559.722656 180.378906 559.496094 181.582031 C 559.320312 182.730469 561.105469 183.707031 561.105469 184.511719 C 561.046875 185.3125 562.140625 186.519531 561.796875 187.378906 C 561.449219 188.242188 561.625 188.871094 562.371094 188.871094 C 563.121094 188.871094 564.269531 190.136719 564.445312 190.996094 C 564.617188 191.914062 566.054688 190.941406 566.285156 190.652344 C 566.457031 190.421875 567.953125 189.621094 568.414062 190.136719 C 568.933594 190.59375 570.890625 189.675781 571.925781 190.710938 C 572.90625 191.742188 574.113281 191.914062 574.230469 193.121094 C 574.285156 194.269531 575.550781 194.382812 576.472656 194.441406 C 577.394531 194.554688 579.007812 194.785156 579.121094 195.933594 C 579.179688 197.023438 580.503906 196.851562 580.328125 198.113281 C 580.214844 199.378906 581.480469 200.355469 580.964844 201.15625 C 580.445312 202.019531 582.863281 203.050781 582.402344 204.027344 C 581.941406 205.0625 585.335938 206.785156 584.011719 208.046875 C 582.632812 209.367188 582.113281 210.34375 582.054688 210.6875 C 581.941406 211.03125 582.285156 213.386719 580.503906 214.304688 C 578.777344 215.277344 578.71875 215.164062 578.546875 216.425781 C 578.371094 217.691406 575.09375 218.320312 576.011719 220.960938 Z M 576.011719 220.960938 " fill-opacity="1" fill-rule="evenodd"/></g></svg>