<svg xmlns="http://www.w3.org/2000/svg" xmlns:xlink="http://www.w3.org/1999/xlink" width="1366" zoomAndPan="magnify" viewBox="0 0 1024.5 576" height="768" preserveAspectRatio="xMidYMid meet" version="1.0"><defs><clipPath id="39cbce6972"><path d="M 392.808594 155.828125 L 598.957031 155.828125 L 598.957031 385.96875 L 392.808594 385.96875 Z M 392.808594 155.828125 " clip-rule="nonzero"/></clipPath></defs><g clip-path="url(#39cbce6972)"><path fill="#0277bd" d="M 598.925781 155.828125 L 392.839844 155.828125 L 411.023438 361.742188 L 495.882812 385.96875 L 580.742188 361.742188 Z M 598.925781 155.828125 " fill-opacity="1" fill-rule="nonzero"/></g><path fill="#039be5" d="M 495.882812 173.996094 L 495.882812 367.191406 L 563.769531 347.8125 L 578.921875 173.996094 Z M 495.882812 173.996094 " fill-opacity="1" fill-rule="nonzero"/><path fill="#ffffff" d="M 551.039062 204.277344 L 495.882812 204.277344 L 495.882812 228.503906 L 525.582031 228.503906 L 523.765625 252.730469 L 495.882812 252.730469 L 495.882812 276.953125 L 522.550781 276.953125 L 520.734375 304.207031 L 495.882812 312.6875 L 495.882812 338.121094 L 543.765625 322.375 L 548.007812 252.730469 Z M 551.039062 204.277344 " fill-opacity="1" fill-rule="nonzero"/><path fill="#eeeeee" d="M 495.882812 204.277344 L 495.882812 228.503906 L 441.9375 228.503906 L 440.117188 204.277344 Z M 468 252.730469 L 469.210938 276.953125 L 495.882812 276.953125 L 495.882812 252.730469 Z M 470.425781 289.066406 L 446.179688 289.066406 L 447.996094 322.375 L 495.882812 338.121094 L 495.882812 312.6875 L 471.03125 304.207031 Z M 470.425781 289.066406 " fill-opacity="1" fill-rule="nonzero"/></svg>