<svg xmlns="http://www.w3.org/2000/svg" xmlns:xlink="http://www.w3.org/1999/xlink" width="1366" zoomAndPan="magnify" viewBox="0 0 1024.5 576" height="768" preserveAspectRatio="xMidYMid meet" version="1.0"><defs><clipPath id="b48feaf76b"><path d="M 405.78125 159.882812 L 635.917969 159.882812 L 635.917969 390.019531 L 405.78125 390.019531 Z M 405.78125 159.882812 " clip-rule="nonzero"/></clipPath></defs><g clip-path="url(#b48feaf76b)"><path fill="#000000" d="M 405.78125 159.882812 L 405.78125 390.019531 L 635.917969 390.019531 L 635.917969 159.882812 Z M 426.703125 180.804688 L 614.996094 180.804688 L 614.996094 369.101562 L 426.703125 369.101562 Z M 529.960938 215.96875 C 523.351562 215.96875 519.480469 219.5 519.480469 226.101562 C 519.480469 232.828125 523.363281 236.582031 529.960938 236.582031 C 536.679688 236.582031 540.546875 232.816406 540.546875 226.101562 C 540.546875 219.488281 536.679688 215.96875 529.960938 215.96875 Z M 562.53125 227 C 561.273438 239.636719 557.179688 244.757812 547.042969 245.898438 L 547.042969 256.277344 C 556.382812 256.277344 556.03125 255.917969 556.03125 257.402344 L 556.03125 287.925781 C 556.03125 301.023438 561.285156 306.335938 575.175781 306.335938 C 581.777344 306.335938 589.066406 304.453125 594.074219 301.941406 L 590.886719 291.664062 C 572.214844 298.726562 573.152344 285.980469 573.152344 284.042969 L 573.152344 256.257812 L 590.886719 256.257812 L 590.886719 244.652344 L 573.152344 244.652344 L 573.152344 227 Z M 476.167969 245.816406 C 464.058594 245.871094 449.441406 250.707031 449.441406 268.476562 C 449.441406 277.011719 453.785156 283.046875 459.476562 285.902344 C 452.296875 292.492188 448.871094 295.566406 448.871094 299.898438 C 448.871094 303.089844 450.242188 305.917969 454 307.621094 C 450.011719 311.386719 447.625 314.25 447.625 319.492188 C 447.625 328.605469 455.703125 333.957031 476.65625 333.957031 C 496.929688 333.957031 508.671875 326.433594 508.671875 313.117188 C 508.671875 296.265625 495.800781 296.949219 465.277344 295.015625 L 469.136719 288.84375 C 476.878906 291.011719 503.074219 291.707031 503.074219 269.496094 C 503.074219 264.140625 500.910156 260.386719 498.742188 257.769531 L 509.449219 256.972656 L 509.449219 247.042969 L 486.792969 247.042969 C 483.941406 246.304688 480.203125 245.800781 476.167969 245.816406 Z M 516.191406 245.917969 L 514.925781 255.378906 C 522.101562 257.878906 522.667969 257.519531 522.667969 259.914062 L 522.667969 294.199219 C 522.667969 296.710938 522.550781 296.257812 514.925781 297.285156 L 514.925781 306.335938 L 548.066406 306.335938 L 548.066406 297.285156 L 542.140625 296.488281 C 540.433594 296.257812 540.320312 296.019531 540.320312 294.199219 L 540.320312 245.917969 Z M 477.128906 257.402344 C 491.355469 257.402344 491.695312 277.691406 476.78125 277.691406 C 461.746094 277.691406 462.429688 257.402344 477.128906 257.402344 Z M 464.359375 310.707031 C 486.566406 312.308594 491.347656 311.738281 491.347656 316.183594 C 491.347656 325.410156 461.394531 325.402344 461.394531 316.855469 C 461.394531 314.578125 462.871094 312.640625 464.359375 310.707031 Z M 464.359375 310.707031 " fill-opacity="1" fill-rule="nonzero"/></g></svg>