<svg xmlns="http://www.w3.org/2000/svg" xmlns:xlink="http://www.w3.org/1999/xlink" width="1366" zoomAndPan="magnify" viewBox="0 0 1024.5 576" height="768" preserveAspectRatio="xMidYMid meet" version="1.0"><defs><clipPath id="c1b870b170"><path d="M 446.324219 143 L 647.976562 143 L 647.976562 372 L 446.324219 372 Z M 446.324219 143 " clip-rule="nonzero"/></clipPath></defs><g clip-path="url(#c1b870b170)"><path fill="#e44d26" d="M 464.824219 349.121094 L 446.507812 143.9375 L 647.796875 143.9375 L 629.457031 349.085938 L 547.027344 371.910156 Z M 464.824219 349.121094 " fill-opacity="1" fill-rule="nonzero"/></g><path fill="#f16529" d="M 547.152344 354.46875 L 613.761719 336.035156 L 629.429688 160.710938 L 547.152344 160.710938 Z M 547.152344 354.46875 " fill-opacity="1" fill-rule="nonzero"/><path fill="#ebebeb" d="M 547.152344 236.816406 L 513.800781 236.816406 L 511.5 211.046875 L 547.152344 211.046875 L 547.152344 185.882812 L 483.964844 185.882812 L 484.5625 192.628906 L 490.753906 261.980469 L 547.152344 261.980469 Z M 547.152344 302.167969 L 547.035156 302.199219 L 518.976562 294.628906 L 517.179688 274.554688 L 491.886719 274.554688 L 495.417969 314.070312 L 547.035156 328.378906 L 547.152344 328.347656 Z M 547.152344 302.167969 " fill-opacity="1" fill-rule="nonzero"/><path fill="#ffffff" d="M 547.066406 236.816406 L 547.066406 261.980469 L 578.09375 261.980469 L 575.164062 294.617188 L 547.054688 302.1875 L 547.054688 328.367188 L 598.714844 314.070312 L 599.09375 309.816406 L 605.019531 243.5625 L 605.640625 236.808594 L 598.847656 236.808594 Z M 547.066406 185.882812 L 547.066406 211.046875 L 607.933594 211.046875 L 608.4375 205.386719 L 609.585938 192.628906 L 610.1875 185.875 Z M 547.066406 185.882812 " fill-opacity="1" fill-rule="nonzero"/></svg>