<svg xmlns="http://www.w3.org/2000/svg" xmlns:xlink="http://www.w3.org/1999/xlink" width="1366" zoomAndPan="magnify" viewBox="0 0 1024.5 576" height="768" preserveAspectRatio="xMidYMid meet" version="1.0"><defs><clipPath id="c15018a0a5"><path d="M 432 148.53125 L 661.867188 148.53125 L 661.867188 378.667969 L 432 378.667969 Z M 432 148.53125 " clip-rule="nonzero"/></clipPath><clipPath id="cd91b805c2"><path d="M 432 148.53125 L 548 148.53125 L 548 378.667969 L 432 378.667969 Z M 432 148.53125 " clip-rule="nonzero"/></clipPath></defs><g clip-path="url(#c15018a0a5)"><path fill="#ffc44d" d="M 440.292969 147.996094 C 437.988281 147.996094 435.796875 148.984375 434.273438 150.710938 C 432.75 152.4375 432.042969 154.734375 432.328125 157.019531 L 453.734375 328.285156 C 454.066406 330.949219 455.710938 333.269531 458.109375 334.46875 L 543.742188 377.285156 C 546.003906 378.417969 548.664062 378.417969 550.921875 377.285156 L 636.554688 334.46875 C 638.957031 333.269531 640.597656 330.949219 640.933594 328.285156 L 662.339844 157.019531 C 662.625 154.734375 661.917969 152.4375 660.394531 150.710938 C 658.867188 148.984375 656.675781 147.996094 654.375 147.996094 Z M 440.292969 147.996094 " fill-opacity="1" fill-rule="nonzero"/></g><g clip-path="url(#cd91b805c2)"><path fill="#e5b045" d="M 547.332031 147.996094 L 547.332031 378.132812 C 546.105469 378.132812 544.875 377.851562 543.742188 377.285156 L 458.109375 334.46875 C 455.710938 333.269531 454.066406 330.949219 453.734375 328.285156 L 432.328125 157.019531 C 432.042969 154.734375 432.75 152.4375 434.273438 150.710938 C 435.796875 148.984375 437.988281 147.996094 440.292969 147.996094 Z M 547.332031 147.996094 " fill-opacity="1" fill-rule="evenodd"/></g><path fill="#cfd8dc" d="M 531.277344 180.109375 C 535.710938 180.109375 539.304688 183.703125 539.304688 188.136719 L 539.304688 327.289062 C 539.304688 330.152344 537.785156 332.796875 535.308594 334.234375 C 532.832031 335.667969 529.78125 335.679688 527.296875 334.261719 L 489.832031 312.851562 C 485.980469 310.652344 484.644531 305.746094 486.84375 301.898438 C 489.042969 298.050781 493.949219 296.710938 497.796875 298.910156 L 523.25 313.457031 L 523.25 188.136719 C 523.25 183.703125 526.84375 180.109375 531.277344 180.109375 Z M 531.277344 180.109375 " fill-opacity="1" fill-rule="evenodd"/><path fill="#eceff1" d="M 555.363281 188.136719 C 555.363281 183.703125 558.957031 180.109375 563.390625 180.109375 L 616.914062 180.109375 C 621.347656 180.109375 624.941406 183.703125 624.941406 188.136719 C 624.941406 192.570312 621.347656 196.164062 616.914062 196.164062 L 571.417969 196.164062 L 571.417969 247.703125 L 609.820312 239.171875 C 612.320312 238.617188 614.9375 239.289062 616.863281 240.980469 C 618.785156 242.671875 619.789062 245.183594 619.554688 247.734375 L 614.203125 306.609375 C 613.953125 309.378906 612.285156 311.820312 609.796875 313.0625 L 566.980469 334.46875 C 563.015625 336.453125 558.195312 334.84375 556.210938 330.878906 C 554.226562 326.914062 555.835938 322.089844 559.800781 320.109375 L 598.617188 300.699219 L 602.570312 257.230469 L 565.132812 265.550781 C 562.757812 266.078125 560.265625 265.5 558.367188 263.976562 C 556.46875 262.453125 555.363281 260.148438 555.363281 257.710938 Z M 555.363281 188.136719 " fill-opacity="1" fill-rule="evenodd"/></svg>