<svg xmlns="http://www.w3.org/2000/svg" xmlns:xlink="http://www.w3.org/1999/xlink" width="1366" zoomAndPan="magnify" viewBox="0 0 1024.5 576" height="768" preserveAspectRatio="xMidYMid meet" version="1.0"><defs><clipPath id="75471e78aa"><path d="M 416 159.882812 L 635.84375 159.882812 L 635.84375 389 L 416 389 Z M 416 159.882812 " clip-rule="nonzero"/></clipPath></defs><path fill="#000000" d="M 620.632812 301.742188 C 620.632812 301.753906 620.625 301.761719 620.613281 301.761719 C 620.601562 301.761719 620.59375 301.753906 620.59375 301.742188 C 620.59375 301.730469 620.601562 301.722656 620.613281 301.722656 C 620.625 301.722656 620.632812 301.730469 620.632812 301.742188 Z M 620.632812 301.742188 " fill-opacity="1" fill-rule="nonzero"/><path fill="#32648d" d="M 592.382812 299.933594 L 592.402344 299.953125 L 592.402344 299.964844 L 592.371094 299.972656 C 590.988281 300.476562 589.847656 300.6875 588.882812 301.113281 C 587.902344 301.503906 587.109375 302.21875 586.644531 303.128906 L 586.632812 303.148438 C 586.042969 304.242188 585.527344 306.183594 585.679688 309.484375 C 586.070312 309.769531 586.546875 309.988281 587.035156 310.140625 L 587.074219 310.148438 C 588.683594 310.644531 591.382812 310.964844 594.394531 310.917969 C 600.398438 310.851562 607.792969 309.433594 611.722656 307.589844 C 615.105469 305.984375 618 304.042969 620.585938 301.742188 C 607.46875 304.480469 600.0625 303.75 595.519531 301.855469 C 594.335938 301.34375 593.296875 300.703125 592.382812 299.933594 Z M 592.382812 299.933594 " fill-opacity="1" fill-rule="nonzero"/><path fill="#32648d" d="M 578.933594 199.359375 L 578.992188 199.445312 L 579.058594 199.519531 Z M 578.933594 199.359375 " fill-opacity="1" fill-rule="nonzero"/><path fill="#32648d" d="M 528.769531 343.414062 C 528.761719 343.175781 528.769531 342.929688 528.761719 342.691406 C 528.761719 342.597656 528.75 342.527344 528.75 342.433594 Z M 528.769531 343.414062 " fill-opacity="1" fill-rule="nonzero"/><path fill="#32648d" d="M 518.714844 301.445312 C 518.160156 301.171875 517.511719 300.972656 516.816406 300.875 L 516.789062 300.875 L 516.789062 300.855469 L 516.589844 300.855469 C 516.09375 300.90625 515.367188 301.074219 513.957031 302.644531 C 510.679688 306.355469 509.535156 308.683594 506.828125 310.863281 C 504.121094 313.03125 500.613281 314.191406 493.601562 315.644531 C 491.378906 316.101562 490.101562 316.605469 489.261719 317.015625 C 489.539062 317.242188 489.511719 317.300781 489.921875 317.519531 C 490.949219 318.089844 492.265625 318.59375 493.332031 318.867188 C 496.34375 319.628906 501.300781 320.515625 506.46875 319.628906 C 511.632812 318.734375 517.007812 316.234375 521.59375 309.738281 C 522.382812 308.617188 522.46875 306.960938 521.820312 305.183594 C 521.171875 303.40625 519.726562 301.875 518.714844 301.445312 Z M 518.714844 301.445312 " fill-opacity="1" fill-rule="nonzero"/><path fill="#32648d" d="M 557.203125 174.167969 L 556.660156 174.273438 C 556.839844 174.234375 557.039062 174.214844 557.222656 174.175781 C 557.210938 174.175781 557.210938 174.167969 557.203125 174.167969 Z M 557.203125 174.167969 " fill-opacity="1" fill-rule="nonzero"/><path fill="#32648d" d="M 583.71875 225.5 C 577.324219 225.585938 573.738281 227.25 571.851562 229.429688 C 569.183594 232.519531 568.933594 237.941406 570.59375 244.617188 C 572.242188 251.300781 575.644531 258.777344 578.847656 264.984375 C 580.449219 268.097656 582.003906 270.890625 583.25 273.164062 C 584.507812 275.445312 585.433594 277.0625 585.996094 278.441406 C 586.511719 279.71875 587.09375 280.839844 587.671875 281.886719 C 590.152344 276.605469 590.589844 271.425781 590.34375 266.023438 C 590.019531 259.335938 588.472656 252.5 588.703125 245.578125 C 588.960938 237.484375 590.542969 232.214844 590.675781 225.957031 C 588.589844 225.671875 586.167969 225.5 583.71875 225.5 Z M 584.898438 230.3125 L 584.890625 230.390625 C 584.890625 230.417969 584.890625 230.445312 584.890625 230.484375 C 584.890625 230.921875 584.765625 231.339844 584.546875 231.683594 L 584.554688 231.671875 C 584.261719 232.214844 583.917969 232.691406 583.519531 233.101562 C 582.582031 234.136719 581.335938 234.859375 579.925781 235.105469 L 579.886719 235.117188 C 579.6875 235.144531 579.457031 235.152344 579.21875 235.152344 C 578.019531 235.152344 576.914062 234.773438 576.007812 234.125 L 576.027344 234.136719 C 575.558594 233.8125 575.148438 233.441406 574.816406 233.023438 L 574.804688 233.015625 C 574.511719 232.691406 574.300781 232.273438 574.214844 231.824219 L 574.214844 231.804688 C 574.214844 231.757812 574.207031 231.710938 574.207031 231.664062 C 574.207031 231.253906 574.359375 230.875 574.617188 230.589844 C 574.921875 230.238281 575.28125 229.953125 575.703125 229.742188 L 575.722656 229.734375 C 576.625 229.21875 577.847656 228.839844 579.230469 228.628906 C 579.742188 228.554688 580.257812 228.515625 580.734375 228.507812 L 580.734375 228.535156 L 581.203125 228.535156 C 581.820312 228.554688 582.394531 228.621094 582.898438 228.746094 C 583.402344 228.859375 583.839844 229.03125 584.195312 229.265625 C 584.546875 229.503906 584.8125 229.867188 584.898438 230.3125 Z M 584.898438 230.3125 " fill-opacity="1" fill-rule="nonzero"/><path fill="#32648d" d="M 478.824219 267.410156 C 478.824219 265.699219 478.960938 264.027344 479.207031 262.378906 L 479.1875 262.5625 C 480.160156 255.535156 480.292969 248.960938 480.179688 243.769531 C 480.066406 238.710938 479.703125 235.34375 479.703125 233.242188 C 479.703125 233.214844 479.703125 233.183594 479.703125 233.15625 C 479.703125 233.128906 479.703125 233.089844 479.703125 233.0625 L 479.703125 233.015625 L 479.695312 232.957031 L 479.695312 232.949219 C 479.695312 232.929688 479.695312 232.917969 479.695312 232.898438 C 479.695312 221.640625 481.675781 210.847656 485.269531 200.832031 C 487.910156 193.757812 491.835938 186.578125 497.71875 180.757812 C 491.933594 178.835938 481.675781 175.90625 470.5625 175.355469 C 469.496094 175.300781 468.246094 175.261719 466.996094 175.261719 L 466.988281 175.261719 L 466.988281 175.269531 C 465.796875 175.269531 464.597656 175.308594 463.414062 175.375 C 453.902344 175.925781 444.90625 178.714844 438.480469 185.597656 C 432.035156 192.484375 427.796875 203.769531 428.71875 222.457031 C 428.902344 225.996094 430.425781 235.90625 433.039062 247.679688 C 435.660156 259.453125 439.347656 273.308594 443.789062 285.546875 C 448.242188 297.785156 453.636719 308.4375 458.761719 313.476562 C 461.347656 315.996094 463.585938 317.015625 465.617188 316.929688 C 467.65625 316.832031 470.113281 315.644531 473.117188 312.003906 C 479.015625 304.832031 484.59375 298.488281 490.347656 292.328125 L 490.160156 292.527344 C 483.199219 286.394531 478.824219 277.425781 478.824219 267.410156 Z M 478.824219 267.410156 " fill-opacity="1" fill-rule="nonzero"/><path fill="#32648d" d="M 529.523438 174.796875 L 529.523438 174.777344 C 518.390625 174.804688 510.414062 178.199219 504.351562 183.289062 C 498.109375 188.546875 493.921875 195.746094 491.167969 203.113281 C 487.898438 211.863281 486.785156 220.328125 486.335938 226.070312 L 486.460938 225.996094 C 489.824219 224.09375 494.238281 222.191406 498.964844 221.089844 C 503.691406 219.984375 508.78125 219.652344 513.394531 221.460938 C 518.007812 223.265625 521.820312 227.515625 523.203125 233.964844 C 529.828125 264.9375 521.144531 276.453125 517.941406 285.148438 C 516.921875 287.648438 515.863281 290.863281 514.976562 294.144531 L 514.824219 294.78125 C 515.226562 294.683594 515.636719 294.570312 516.035156 294.53125 C 518.296875 294.34375 520.066406 295.105469 521.117188 295.558594 C 524.339844 296.910156 526.550781 299.746094 527.742188 302.976562 C 528.054688 303.824219 528.273438 304.738281 528.40625 305.679688 C 528.53125 306.003906 528.597656 306.382812 528.597656 306.773438 C 528.597656 306.808594 528.597656 306.847656 528.597656 306.886719 C 528.445312 311.640625 528.351562 317.222656 528.351562 322.835938 C 528.351562 329.480469 528.484375 336.101562 528.730469 342.691406 C 528.949219 347.691406 529.265625 352.125 529.65625 355.613281 C 530.066406 359.171875 530.636719 361.863281 531 362.777344 C 532.203125 365.820312 533.964844 369.804688 537.148438 372.511719 C 540.332031 375.214844 544.898438 377.019531 553.238281 375.214844 C 560.472656 373.644531 564.933594 371.46875 567.914062 368.339844 C 570.898438 365.210938 572.671875 360.855469 573.804688 354.1875 C 575.511719 344.203125 578.933594 315.246094 579.351562 309.796875 C 579.160156 305.6875 579.761719 302.53125 581.066406 300.125 C 582.402344 297.652344 584.480469 296.140625 586.261719 295.324219 C 587.160156 294.914062 587.996094 294.636719 588.683594 294.4375 C 587.84375 293.230469 587.09375 292.222656 586.308594 291.242188 L 586.394531 291.347656 C 583.925781 288.34375 581.820312 284.890625 580.230469 281.171875 L 580.125 280.894531 C 579.160156 278.910156 578.351562 277.40625 577.503906 275.933594 L 577.703125 276.304688 C 576.453125 274.019531 574.871094 271.167969 573.214844 267.960938 C 569.898438 261.542969 566.292969 253.765625 564.417969 246.183594 C 562.550781 238.617188 562.28125 230.777344 567.066406 225.253906 C 571.296875 220.347656 578.742188 218.3125 589.902344 219.453125 C 589.578125 218.453125 589.378906 217.628906 588.816406 216.296875 C 586.101562 209.925781 582.832031 204.425781 578.953125 199.445312 C 569.488281 187.253906 554.191406 175.183594 530.570312 174.796875 Z M 529.523438 174.796875 " fill-opacity="1" fill-rule="nonzero"/><path fill="#32648d" d="M 486.203125 233.773438 L 486.222656 233.765625 L 486.25 233.738281 Z M 486.203125 233.773438 " fill-opacity="1" fill-rule="nonzero"/><path fill="#32648d" d="M 500.214844 227.335938 L 500.308594 227.328125 L 500.386719 227.296875 Z M 500.214844 227.335938 " fill-opacity="1" fill-rule="nonzero"/><path fill="#32648d" d="M 512.023438 282.914062 C 515.84375 272.507812 523.367188 264.917969 517.035156 235.304688 C 516 230.457031 513.949219 228.496094 511.128906 227.394531 C 509.753906 226.890625 508.164062 226.59375 506.496094 226.59375 C 506.390625 226.59375 506.277344 226.59375 506.171875 226.59375 L 506.191406 226.59375 C 504.160156 226.613281 502.195312 226.871094 500.308594 227.328125 C 496.304688 228.335938 492.78125 229.761719 489.5 231.585938 C 488.273438 232.261719 487.214844 232.964844 486.222656 233.753906 L 486.042969 233.925781 C 486.097656 235.316406 486.367188 238.683594 486.480469 243.636719 C 486.59375 249.058594 486.460938 255.972656 485.421875 263.453125 C 483.171875 279.71875 494.859375 293.183594 508.582031 293.203125 C 509.394531 289.863281 510.707031 286.476562 512.023438 282.914062 Z M 503.914062 235.65625 C 503.464844 235.203125 503.101562 234.6875 502.808594 234.125 L 502.789062 234.089844 C 502.539062 233.6875 502.398438 233.203125 502.398438 232.679688 C 502.398438 232.585938 502.40625 232.492188 502.417969 232.394531 L 502.417969 232.40625 C 502.558594 231.378906 503.398438 230.847656 504.207031 230.550781 C 504.960938 230.304688 505.800781 230.160156 506.695312 230.160156 C 506.828125 230.160156 506.960938 230.160156 507.113281 230.171875 L 507.105469 230.132812 C 507.601562 230.132812 508.136719 230.179688 508.667969 230.257812 C 510.109375 230.457031 511.394531 230.847656 512.367188 231.417969 C 512.851562 231.683594 513.273438 232.015625 513.605469 232.414062 L 513.617188 232.425781 C 513.9375 232.796875 514.128906 233.28125 514.128906 233.824219 C 514.128906 233.898438 514.128906 233.972656 514.121094 234.050781 L 514.121094 234.042969 C 514.023438 234.613281 513.769531 235.105469 513.414062 235.503906 C 513.023438 235.980469 512.585938 236.390625 512.089844 236.734375 L 512.070312 236.742188 C 511.109375 237.445312 509.898438 237.863281 508.59375 237.863281 C 508.335938 237.863281 508.078125 237.84375 507.828125 237.816406 L 507.859375 237.816406 C 506.277344 237.550781 504.921875 236.769531 503.914062 235.65625 Z M 503.914062 235.65625 " fill-opacity="1" fill-rule="nonzero"/><path fill="#32648d" d="M 489.3125 231.683594 C 489.378906 231.644531 489.445312 231.625 489.5 231.585938 C 489.511719 231.585938 489.519531 231.578125 489.53125 231.570312 Z M 489.3125 231.683594 " fill-opacity="1" fill-rule="nonzero"/><path fill="#32648d" d="M 584.03125 195.5625 C 588.160156 200.84375 591.734375 206.851562 594.488281 213.300781 L 594.6875 213.824219 C 595.726562 216.332031 596.421875 218.453125 596.8125 220.101562 C 597.015625 220.925781 597.148438 221.621094 597.195312 222.34375 C 597.214844 222.707031 597.234375 223.078125 597.082031 223.714844 C 597.082031 223.742188 597.03125 223.808594 597.023438 223.835938 C 597.308594 232.167969 595.261719 237.816406 595.023438 245.765625 C 594.832031 251.53125 596.289062 258.300781 596.652344 265.691406 C 596.996094 272.632812 596.164062 280.257812 591.695312 287.742188 C 592.078125 288.199219 592.410156 288.65625 592.773438 289.113281 C 604.582031 270.332031 613.09375 249.550781 617.628906 231.835938 C 620.0625 222.296875 621.347656 213.652344 621.460938 206.804688 C 621.558594 199.957031 620.289062 194.992188 618.6875 192.921875 C 606.050781 176.601562 588.960938 172.445312 574.625 172.332031 L 574.625 172.339844 L 573.253906 172.339844 C 567.722656 172.425781 562.386719 173.0625 557.230469 174.175781 C 568.933594 179.425781 577.800781 187.507812 584.03125 195.5625 Z M 584.03125 195.5625 " fill-opacity="1" fill-rule="nonzero"/><g clip-path="url(#75471e78aa)"><path fill="#000000" d="M 531.09375 162.335938 L 531 162.335938 C 519.90625 162.148438 510.382812 164.867188 502.691406 169.394531 C 495.125 166.738281 479.425781 162.164062 462.871094 163.078125 C 451.347656 163.714844 438.765625 167.253906 429.445312 177.191406 C 420.152344 187.128906 415.242188 202.507812 416.273438 223.429688 C 416.558594 229.199219 418.1875 238.617188 420.886719 250.808594 C 423.59375 263 427.386719 277.273438 432.121094 290.292969 C 436.859375 303.320312 442.046875 315.015625 450.15625 322.96875 C 454.207031 326.953125 459.78125 330.300781 466.351562 330.023438 C 470.960938 329.832031 475.128906 327.789062 478.730469 324.773438 C 480.484375 327.105469 482.351562 328.121094 484.058594 329.0625 C 486.203125 330.253906 488.289062 331.058594 490.453125 331.59375 C 494.34375 332.574219 500.996094 333.882812 508.792969 332.542969 C 511.453125 332.097656 514.246094 331.222656 517.027344 329.976562 C 517.132812 333.113281 517.257812 336.1875 517.371094 339.296875 C 517.761719 349.148438 518 358.25 520.925781 366.226562 C 521.394531 367.53125 522.6875 374.246094 527.769531 380.167969 C 532.847656 386.101562 542.820312 389.800781 554.160156 387.347656 C 562.167969 385.617188 572.335938 382.5 579.105469 372.78125 C 585.785156 363.175781 588.796875 349.394531 589.398438 327.046875 C 589.550781 325.839844 589.730469 324.8125 589.914062 323.851562 L 591.503906 323.996094 L 591.695312 323.996094 C 600.234375 324.382812 609.5 323.15625 617.238281 319.523438 C 624.09375 316.320312 629.277344 313.078125 633.0625 307.324219 C 634.003906 305.898438 635.035156 304.175781 635.320312 301.210938 C 635.605469 298.242188 633.917969 293.601562 631.117188 291.460938 C 625.511719 287.164062 621.996094 288.796875 618.222656 289.589844 C 614.855469 290.378906 610.96875 290.871094 606.984375 290.976562 L 606.90625 290.976562 C 617.792969 272.460938 625.597656 252.792969 630.050781 235.390625 C 632.691406 225.121094 634.167969 215.648438 634.28125 207.367188 C 634.40625 199.082031 633.738281 191.75 628.820312 185.40625 C 613.464844 165.589844 591.875 160.113281 575.167969 159.921875 C 574.652344 159.910156 574.128906 159.902344 573.613281 159.910156 L 573.613281 159.882812 C 564.523438 159.960938 555.773438 161.328125 547.488281 163.773438 L 547.097656 163.90625 C 542.3125 163.011719 536.757812 162.441406 531.09375 162.335938 Z M 553.675781 168.394531 C 559.507812 166.957031 566.21875 166.09375 573.117188 166.007812 L 573.175781 166.007812 L 573.1875 165.96875 C 588.988281 165.816406 609.167969 170.296875 623.664062 189.003906 C 626.921875 193.207031 627.894531 199.347656 627.78125 206.917969 C 627.65625 214.480469 626.273438 223.53125 623.738281 233.453125 C 618.820312 252.660156 609.539062 275.058594 596.460938 295.152344 C 596.890625 295.464844 597.386719 295.742188 597.902344 295.949219 L 597.949219 295.96875 C 600.675781 297.109375 606.898438 298.089844 619.316406 295.511719 C 622.445312 294.847656 624.730469 294.398438 627.105469 296.226562 C 628.171875 297.140625 628.839844 298.488281 628.839844 300 C 628.839844 300.097656 628.839844 300.191406 628.828125 300.285156 L 628.828125 300.277344 C 628.6875 301.484375 628.257812 302.570312 627.601562 303.472656 C 625.199219 307.113281 620.460938 310.566406 614.398438 313.410156 C 609.023438 315.941406 601.3125 317.261719 594.480469 317.335938 C 591.046875 317.375 587.890625 317.109375 585.203125 316.261719 L 585.03125 316.195312 C 583.996094 326.277344 581.613281 346.179688 580.058594 355.261719 C 578.820312 362.585938 576.644531 368.40625 572.488281 372.761719 C 568.34375 377.117188 562.480469 379.742188 554.589844 381.453125 C 544.820312 383.574219 537.691406 381.292969 533.097656 377.382812 C 528.511719 373.484375 526.414062 368.308594 525.148438 365.144531 C 524.28125 362.957031 523.832031 360.121094 523.394531 356.335938 C 522.957031 352.550781 522.640625 347.921875 522.421875 342.699219 C 522.210938 337.394531 522.097656 331.15625 522.097656 324.886719 C 522.097656 322.824219 522.117188 320.769531 522.136719 318.707031 C 518.199219 322.359375 513.222656 324.925781 507.695312 325.90625 L 507.523438 325.933594 C 501.035156 327.046875 495.25 325.953125 491.789062 325.078125 C 489.949219 324.613281 488.347656 323.957031 486.84375 323.136719 C 485.257812 322.28125 483.753906 321.304688 482.742188 319.390625 C 482.34375 318.660156 482.105469 317.773438 482.105469 316.84375 C 482.105469 316.472656 482.144531 316.101562 482.21875 315.757812 C 482.5625 314.484375 483.277344 313.402344 484.257812 312.640625 L 484.269531 312.628906 C 486.136719 311.097656 488.597656 310.242188 492.324219 309.464844 C 499.089844 308.054688 501.453125 307.09375 502.894531 305.945312 C 504.113281 304.957031 505.503906 302.957031 507.945312 300.03125 C 507.933594 299.945312 507.925781 299.800781 507.914062 299.667969 L 507.914062 299.640625 C 503.300781 299.507812 499.003906 298.261719 495.25 296.160156 L 495.390625 296.234375 C 493.980469 297.738281 486.765625 305.441406 477.976562 316.128906 C 474.28125 320.597656 470.191406 323.167969 465.882812 323.347656 C 461.574219 323.527344 457.675781 321.339844 454.359375 318.097656 C 447.734375 311.601562 442.453125 300.429688 437.851562 287.800781 C 433.257812 275.171875 429.519531 261.105469 426.863281 249.125 C 424.191406 237.140625 422.628906 227.480469 422.402344 222.820312 C 421.410156 203.019531 425.996094 189.679688 433.859375 181.261719 C 441.730469 172.84375 452.519531 169.660156 463.03125 169.050781 C 481.914062 167.957031 499.832031 174.605469 503.464844 176.03125 C 510.460938 171.238281 519.46875 168.253906 530.703125 168.441406 C 536.367188 168.527344 541.808594 169.277344 547.011719 170.621094 L 546.535156 170.515625 L 546.726562 170.429688 C 548.546875 169.746094 550.875 169.050781 553.257812 168.480469 Z M 553.675781 168.394531 " fill-opacity="1" fill-rule="nonzero"/></g></svg>