<svg xmlns="http://www.w3.org/2000/svg" xmlns:xlink="http://www.w3.org/1999/xlink" width="1366" zoomAndPan="magnify" viewBox="0 0 1024.5 576" height="768" preserveAspectRatio="xMidYMid meet" version="1.0"><defs><clipPath id="8ef30db950"><path d="M 447.945312 156 L 695.328125 156 L 695.328125 377 L 447.945312 377 Z M 447.945312 156 " clip-rule="nonzero"/></clipPath></defs><g clip-path="url(#8ef30db950)"><path fill="#00d8ff" d="M 651.253906 228.1875 C 648.621094 227.285156 645.96875 226.449219 643.292969 225.683594 C 643.742188 223.847656 644.15625 222.039062 644.523438 220.257812 C 650.550781 191.039062 646.609375 167.5 633.15625 159.746094 C 620.257812 152.316406 599.160156 160.066406 577.855469 178.589844 C 575.753906 180.417969 573.703125 182.300781 571.695312 184.234375 C 570.355469 182.949219 568.988281 181.6875 567.601562 180.453125 C 545.269531 160.644531 522.890625 152.296875 509.449219 160.070312 C 496.5625 167.523438 492.746094 189.652344 498.167969 217.347656 C 498.707031 220.089844 499.316406 222.816406 499.996094 225.527344 C 496.828125 226.429688 493.773438 227.386719 490.847656 228.402344 C 464.664062 237.523438 447.945312 251.8125 447.945312 266.636719 C 447.945312 281.945312 465.894531 297.300781 493.164062 306.609375 C 495.375 307.363281 497.601562 308.058594 499.847656 308.699219 C 499.117188 311.621094 498.472656 314.5625 497.90625 317.515625 C 492.734375 344.730469 496.773438 366.335938 509.625 373.742188 C 522.902344 381.390625 545.183594 373.527344 566.878906 354.582031 C 568.636719 353.042969 570.359375 351.457031 572.039062 349.832031 C 574.210938 351.925781 576.4375 353.957031 578.722656 355.925781 C 599.738281 373.988281 620.496094 381.285156 633.335938 373.859375 C 646.597656 366.1875 650.910156 342.976562 645.3125 314.738281 C 644.871094 312.527344 644.378906 310.324219 643.828125 308.136719 C 645.394531 307.671875 646.929688 307.195312 648.425781 306.699219 C 676.773438 297.316406 695.21875 282.148438 695.21875 266.636719 C 695.21875 251.757812 677.960938 237.371094 651.253906 228.1875 Z M 645.105469 296.683594 C 643.753906 297.132812 642.367188 297.5625 640.953125 297.980469 C 637.824219 288.085938 633.601562 277.5625 628.429688 266.6875 C 633.363281 256.074219 637.425781 245.683594 640.464844 235.851562 C 642.996094 236.582031 645.449219 237.351562 647.816406 238.164062 C 670.699219 246.035156 684.65625 257.671875 684.65625 266.636719 C 684.65625 276.183594 669.582031 288.582031 645.105469 296.683594 Z M 634.949219 316.789062 C 637.425781 329.273438 637.777344 340.5625 636.136719 349.390625 C 634.667969 357.320312 631.703125 362.609375 628.042969 364.726562 C 620.25 369.234375 603.585938 363.375 585.613281 347.925781 C 583.488281 346.09375 581.414062 344.207031 579.394531 342.261719 C 586.363281 334.648438 593.328125 325.796875 600.121094 315.96875 C 612.078125 314.910156 623.371094 313.175781 633.613281 310.8125 C 634.105469 312.792969 634.550781 314.785156 634.949219 316.789062 Z M 532.246094 363.949219 C 524.632812 366.632812 518.570312 366.710938 514.90625 364.597656 C 507.105469 360.105469 503.863281 342.757812 508.285156 319.484375 C 508.8125 316.734375 509.414062 314 510.089844 311.285156 C 520.21875 313.523438 531.429688 315.132812 543.414062 316.105469 C 550.253906 325.722656 557.417969 334.5625 564.640625 342.300781 C 563.105469 343.785156 561.535156 345.230469 559.929688 346.636719 C 550.332031 355.015625 540.71875 360.957031 532.246094 363.949219 Z M 496.582031 296.625 C 484.523438 292.507812 474.566406 287.15625 467.742188 281.316406 C 461.605469 276.070312 458.511719 270.863281 458.511719 266.636719 C 458.511719 257.640625 471.933594 246.167969 494.324219 238.371094 C 497.039062 237.421875 499.882812 236.53125 502.835938 235.695312 C 505.929688 245.75 509.988281 256.261719 514.886719 266.890625 C 509.925781 277.679688 505.808594 288.363281 502.683594 298.535156 C 500.632812 297.949219 498.597656 297.3125 496.582031 296.625 Z M 508.535156 215.320312 C 503.890625 191.59375 506.976562 173.695312 514.742188 169.203125 C 523.015625 164.421875 541.304688 171.242188 560.585938 188.34375 C 561.84375 189.460938 563.082031 190.601562 564.296875 191.765625 C 557.113281 199.472656 550.015625 208.246094 543.234375 217.808594 C 531.601562 218.882812 520.472656 220.613281 510.234375 222.929688 C 509.605469 220.40625 509.039062 217.871094 508.535156 215.320312 Z M 615.199219 241.628906 C 612.78125 237.460938 610.273438 233.339844 607.679688 229.277344 C 615.570312 230.273438 623.128906 231.597656 630.226562 233.214844 C 628.09375 240.039062 625.4375 247.171875 622.3125 254.484375 C 620.027344 250.152344 617.65625 245.867188 615.199219 241.628906 Z M 571.703125 199.308594 C 576.574219 204.582031 581.453125 210.46875 586.253906 216.855469 C 576.515625 216.394531 566.765625 216.394531 557.027344 216.851562 C 561.832031 210.519531 566.753906 204.640625 571.703125 199.308594 Z M 527.925781 241.703125 C 525.5 245.90625 523.171875 250.164062 520.945312 254.476562 C 517.871094 247.1875 515.238281 240.023438 513.089844 233.101562 C 520.144531 231.523438 527.667969 230.234375 535.507812 229.257812 C 532.882812 233.34375 530.355469 237.496094 527.925781 241.703125 Z M 535.730469 304.765625 C 527.632812 303.863281 519.996094 302.640625 512.941406 301.105469 C 515.125 294.058594 517.816406 286.742188 520.957031 279.296875 C 523.195312 283.613281 525.53125 287.875 527.96875 292.078125 C 530.472656 296.402344 533.066406 300.636719 535.730469 304.765625 Z M 571.992188 334.707031 C 566.984375 329.3125 561.992188 323.339844 557.117188 316.921875 C 561.851562 317.105469 566.675781 317.199219 571.582031 317.199219 C 576.625 317.199219 581.605469 317.085938 586.507812 316.867188 C 581.695312 323.40625 576.832031 329.382812 571.992188 334.707031 Z M 622.410156 278.917969 C 625.71875 286.441406 628.503906 293.722656 630.714844 300.648438 C 623.546875 302.28125 615.804688 303.597656 607.648438 304.574219 C 610.261719 300.4375 612.792969 296.246094 615.238281 292.007812 C 617.726562 287.695312 620.117188 283.332031 622.410156 278.917969 Z M 606.089844 286.734375 C 602.34375 293.234375 598.386719 299.609375 594.226562 305.855469 C 586.691406 306.386719 579.136719 306.652344 571.582031 306.648438 C 563.886719 306.648438 556.402344 306.410156 549.195312 305.941406 C 544.925781 299.714844 540.894531 293.324219 537.109375 286.792969 C 533.34375 280.292969 529.824219 273.652344 526.558594 266.886719 C 529.8125 260.121094 533.324219 253.476562 537.078125 246.972656 L 537.078125 246.976562 C 540.832031 240.46875 544.828125 234.109375 549.066406 227.90625 C 556.421875 227.351562 563.960938 227.0625 571.582031 227.0625 C 579.238281 227.0625 586.789062 227.351562 594.140625 227.914062 C 598.335938 234.105469 602.308594 240.445312 606.054688 246.917969 C 609.824219 253.40625 613.378906 260.015625 616.714844 266.738281 C 613.410156 273.527344 609.867188 280.195312 606.089844 286.734375 Z M 627.878906 168.890625 C 636.160156 173.660156 639.382812 192.898438 634.179688 218.128906 C 633.847656 219.738281 633.472656 221.375 633.066406 223.039062 C 622.808594 220.671875 611.667969 218.914062 600.003906 217.820312 C 593.210938 208.15625 586.171875 199.367188 579.101562 191.757812 C 580.953125 189.976562 582.851562 188.238281 584.789062 186.546875 C 603.046875 170.679688 620.105469 164.410156 627.878906 168.890625 Z M 571.582031 244.578125 C 583.777344 244.578125 593.664062 254.453125 593.664062 266.636719 C 593.664062 278.816406 583.777344 288.695312 571.582031 288.695312 C 559.386719 288.695312 549.503906 278.816406 549.503906 266.636719 C 549.503906 254.453125 559.386719 244.578125 571.582031 244.578125 Z M 571.582031 244.578125 " fill-opacity="1" fill-rule="nonzero"/></g></svg>