<svg xmlns="http://www.w3.org/2000/svg" xmlns:xlink="http://www.w3.org/1999/xlink" width="1366" zoomAndPan="magnify" viewBox="0 0 1024.5 576" height="768" preserveAspectRatio="xMidYMid meet" version="1.0"><path fill="#6c4eb0" d="M 503.828125 177.261719 C 512.757812 165.984375 529.582031 160.417969 541.046875 160.128906 C 573.199219 159.511719 586.601562 199.964844 587.632812 216.046875 L 602.519531 220.554688 C 599.089844 171.257812 568.738281 145.398438 539.695312 145.398438 C 512.460938 145.386719 487.3125 165.378906 477.179688 194.695312 C 463.339844 233.777344 472.421875 271.347656 489.390625 301.417969 C 487.910156 303.371094 487.015625 306.816406 487.3125 310.121094 C 487.601562 319.144531 495.191406 326.660156 504.285156 326.660156 L 504.878906 326.660156 C 514.410156 326.363281 521.703125 318.402344 521.253906 308.921875 C 521.253906 299.898438 513.515625 292.402344 504.433594 292.402344 L 503.828125 292.402344 C 503.230469 292.402344 502.347656 292.402344 501.59375 292.691406 C 489.242188 271.644531 484.027344 249.09375 485.972656 224.761719 C 487.15625 206.417969 493.117188 190.484375 503.828125 177.261719 Z M 503.828125 177.261719 " fill-opacity="1" fill-rule="nonzero"/><path fill="#6c4eb0" d="M 432.09375 347.875 C 442.066406 362.902344 462.464844 372.511719 484.789062 372.511719 C 490.742188 372.511719 497 372.074219 503.101562 370.566406 C 541.8125 363.050781 571.140625 339.605469 587.960938 305.039062 L 588.101562 304.730469 C 596.734375 303.976562 603.433594 296.304688 602.996094 287.132812 C 602.539062 277.960938 595.097656 270.605469 586.023438 270.605469 L 585.417969 270.605469 C 576.050781 270.910156 568.746094 278.875 569.042969 288.351562 C 569.34375 293.15625 571.289062 297.070312 573.953125 299.917969 C 563.539062 320.367188 547.910156 335.386719 524.234375 348.023438 C 508.308594 356.429688 491.488281 359.597656 475.113281 357.34375 C 461.421875 355.398438 450.710938 349.214844 444.152344 339.308594 C 434.335938 324.269531 433.445312 308.046875 441.621094 291.816406 C 447.589844 280.09375 456.515625 271.527344 462.476562 267.308594 C 460.984375 263.40625 459.195312 256.796875 458.300781 251.84375 C 414.21875 283.699219 418.699219 327.277344 432.09375 347.875 Z M 432.09375 347.875 " fill-opacity="1" fill-rule="nonzero"/><path fill="#6c4eb0" d="M 655.972656 341.242188 C 664.894531 323.207031 664.160156 292.851562 641.375 266.84375 L 641.238281 267.140625 C 618.175781 239.78125 584.226562 224.753906 545.507812 224.753906 L 540.441406 224.753906 C 537.925781 219.195312 532.125 215.730469 525.566406 215.730469 L 525.121094 215.730469 C 515.75 215.730469 508.449219 223.859375 508.753906 233.320312 C 509.054688 242.332031 516.644531 249.855469 525.726562 249.855469 L 526.460938 249.855469 C 533.167969 249.558594 538.96875 245.339844 541.34375 239.335938 L 546.859375 239.335938 C 569.800781 239.335938 591.519531 246.09375 611.332031 259.316406 C 626.503906 269.394531 637.382812 282.617188 643.484375 298.398438 C 648.828125 311.324219 648.539062 323.949219 643.035156 334.484375 C 634.550781 351.011719 620.253906 359.738281 601.355469 359.738281 C 589.441406 359.738281 577.835938 355.972656 571.875 353.273438 C 568.308594 356.261719 562.347656 361.226562 558.027344 364.242188 C 571.121094 370.238281 584.375 373.703125 597.171875 373.703125 C 626.203125 373.703125 647.773438 357.183594 655.972656 341.242188 Z M 655.972656 341.242188 " fill-opacity="1" fill-rule="nonzero"/></svg>